<svg xmlns="http://www.w3.org/2000/svg" viewBox="0 0 1073.4 359.3"><style></style><g id="Слой_2"><linearGradient id="SVGID_1_" gradientUnits="userSpaceOnUse" x1="53.2744" y1="-197.624" x2="1219.152" y2="193.9239"><stop offset="0" stop-color="#fe5a1f"/><stop offset="1" stop-color="#fe801f"/></linearGradient><path fill="url(#SVGID_1_)" d="M775.5 0h-62.9l62.9 89.9z"/><linearGradient id="SVGID_2_" gradientUnits="userSpaceOnUse" x1="-51.7104" y1="114.98" x2="1114.1671" y2="506.5278"><stop offset="0" stop-color="#fe5a1f"/><stop offset="1" stop-color="#fe801f"/></linearGradient><path d="M251.3 134.9C251.3 60.6 191 .3 116.7.3H0l25.2 36 6.2 8.9 31.4 44.9h53.9c24.8 0 44.9 20.1 44.9 44.9 0 21.9-15.7 40.1-36.5 44.1-2.7.5-5.5.8-8.4.8H18.1l58.5 83.5 67.2 96h107.6l-64.5-92.1c-8.2 1.6-16.6 2.4-25.2 2.4-7.7 0-15.2-.7-22.5-1.9 13.8-2.3 26.9-6.7 39-12.9 43.4-22.5 73.1-67.8 73.1-120z" fill="url(#SVGID_2_)"/><linearGradient id="SVGID_3_" gradientUnits="userSpaceOnUse" x1="1.7451" y1="-44.1898" x2="1167.6227" y2="347.3581"><stop offset="0" stop-color="#fe5a1f"/><stop offset="1" stop-color="#fe801f"/></linearGradient><path fill="url(#SVGID_3_)" d="M667.7 0v358.9H775.5v-205l-18.1-25.7z"/><linearGradient id="SVGID_4_" gradientUnits="userSpaceOnUse" x1="21.0843" y1="-101.7744" x2="1186.9619" y2="289.7734"><stop offset="0" stop-color="#fe5a1f"/><stop offset="1" stop-color="#fe801f"/></linearGradient><path fill="url(#SVGID_4_)" d="M963.5 201.9L1042 89.7l1.4-2H935.8l-1.4 2-9.7 13.8-11.9 17.1V0H804.2v358.9H912.8v-75.6l53 75.6h107.6z"/><linearGradient id="SVGID_5_" gradientUnits="userSpaceOnUse" x1="-19.4632" y1="18.9605" x2="1146.4143" y2="410.5083"><stop offset="0" stop-color="#fe5a1f"/><stop offset="1" stop-color="#fe801f"/></linearGradient><path d="M543.7 220.4c-26.2 15.8-56.8 25.2-89.5 25.8l16.3 23.3h-11c-6.7 0-13.2-.8-19.5-2.2-40.2-8.9-70.2-44.7-70.2-87.5 0-2.8.2-5.6.4-8.3.1-1 .2-1.9.4-2.9 0-.1 0-.3.1-.4.2-1.6.4-3.2.7-4.7.2-1.2.5-2.3.7-3.5.3-1.4.7-2.7 1-4 .4-1.3.7-2.7 1.1-4 .2-.7.5-1.4.8-2.1 1.3-3.7 2.8-7.2 4.6-10.7.1-.1.1-.2.1-.3 1-1.9 2-3.7 3.1-5.5.2-.2.3-.5.5-.7 1.1-1.8 2.3-3.6 3.6-5.4 14.7-20.3 37.6-34.3 64-36.8 2.9-.3 5.8-.4 8.7-.4 16 0 30.9 4.2 43.9 11.5 23.3 13.1 40.1 36.3 44.5 63.6.8 4.8 1.3 9.6 1.3 14.6H639c0-3.6-.1-7.2-.3-10.7-.1-1-.2-2.1-.2-3.1-.2-2.6-.4-5.1-.7-7.6v-.4c-.1-1-.2-1.9-.4-2.9-.4-2.8-.8-5.5-1.3-8.2 0-.2-.1-.4-.1-.5-.1-.5-.2-1.1-.3-1.6-.7-3.5-1.5-7-2.4-10.5 0-.1-.1-.2-.1-.3-.9-3.3-1.8-6.5-2.9-9.8l-.3-.9c-.1-.3-.2-.7-.3-1-.9-2.7-1.9-5.4-2.9-8.1 0-.1-.1-.2-.1-.3-.2-.5-.4-1.1-.6-1.6-.3-.7-.6-1.3-.9-2-2.5-6-5.3-11.8-8.4-17.4-2.5-4.6-5.3-9-8.2-13.3l-.6-.9c-.2-.3-.4-.5-.6-.8-2-2.9-4.1-5.8-6.3-8.6-.5-.7-1-1.3-1.5-2-.2-.2-.4-.4-.5-.6-2.7-3.3-5.4-6.5-8.3-9.6l-.1-.1c-.1-.1-.2-.1-.2-.2-2.9-3.1-5.9-6-9-8.8l-.8-.8-.9-.9h-.1c-10.2-9.2-21.5-17.2-33.6-23.9-.6-.3-1.2-.6-1.8-1-3.8-2.1-7.7-4-11.7-5.8h-.1c-2.3-1-4.6-2-6.9-2.9-.3-.1-.7-.3-1-.4-2.1-.8-4.2-1.6-6.4-2.3l-1.8-.6c-1.9-.6-3.9-1.3-5.9-1.8-.8-.2-1.7-.5-2.5-.7-1.8-.5-3.6-1-5.4-1.4-1.1-.3-2.1-.5-3.2-.7-1.7-.4-3.3-.8-5-1.1-1.3-.2-2.5-.5-3.8-.7-1.5-.3-3.1-.5-4.6-.8-1.5-.2-3-.4-4.4-.6-1.4-.2-2.8-.4-4.2-.5-1.8-.2-3.6-.3-5.4-.4-1.1-.1-2.2-.2-3.3-.2-2.9-.1-5.8-.2-8.7-.2h-.2c-4 0-8 .2-11.9.4-.8.1-1.6.1-2.4.2-3.8.3-7.6.7-11.3 1.2h-.1c-3.7.5-7.4 1.2-11 2-1.2.3-2.5.6-3.7.9l-7.2 1.8c-1.3.4-2.6.7-3.9 1.1-2.4.7-4.8 1.5-7.2 2.3l-3.3 1.2c-.5.2-1 .3-1.6.5-2.9 1.1-5.7 2.3-8.5 3.5-.2.1-.3.2-.5.2-2.6 1.2-5.2 2.4-7.8 3.7-.3.1-.6.3-.8.4-2.4 1.2-4.8 2.5-7.2 3.9-.3.2-.7.4-1 .6-2.3 1.3-4.6 2.7-6.8 4.1-.3.2-.7.4-1 .7-2.2 1.4-4.4 2.9-6.5 4.4-.3.2-.7.5-1 .7-2.2 1.6-4.3 3.2-6.4 4.8-.3.2-.6.4-.9.7-2.2 1.7-4.3 3.5-6.4 5.3-.2.2-.4.3-.6.5-2.2 2-4.4 4-6.6 6.1-18.1 17.8-32.4 39.3-41.7 63.4 0 .1-.1.1-.1.2-3 7.7-5.4 15.6-7.3 23.7-.1.6-.3 1.2-.4 1.8-.9 4-1.7 8-2.3 12.1v.3c-.6 3.8-1 7.6-1.3 11.5-.1 1-.2 2-.2 3-.3 4-.5 8-.5 12.1 0 29.9 7.4 58.1 20.3 82.9 1.2 2.3 2.5 4.7 3.8 6.9 5.2 8.9 11 17.3 17.6 25.2 3.4 4 6.9 7.9 10.6 11.6l.3.3c32.5 32.5 77.3 52.6 126.9 52.6 3.4 0 6.8-.1 10.2-.3.7 0 1.4-.1 2-.2 2.8-.2 5.6-.4 8.3-.7.5-.1 1-.1 1.5-.2 3.1-.4 6.2-.8 9.3-1.4h.2c3.4-.6 6.7-1.3 10-2.1 8.1-1.9 16.1-4.4 23.7-7.4l8.6 12.3h107.5l-97.5-138.7z" fill="url(#SVGID_5_)"/><g><linearGradient id="SVGID_6_" gradientUnits="userSpaceOnUse" x1="53.2744" y1="-197.624" x2="1219.152" y2="193.9239"><stop offset="0" stop-color="#fe5a1f"/><stop offset="1" stop-color="#fe801f"/></linearGradient><path fill="url(#SVGID_6_)" d="M775.5 0h-62.9l62.9 89.9z"/><linearGradient id="SVGID_7_" gradientUnits="userSpaceOnUse" x1="-51.7104" y1="114.98" x2="1114.1671" y2="506.5278"><stop offset="0" stop-color="#fe5a1f"/><stop offset="1" stop-color="#fe801f"/></linearGradient><path d="M251.3 134.9C251.3 60.6 191 .3 116.7.3H0l25.2 36 6.2 8.9 31.4 44.9h53.9c24.8 0 44.9 20.1 44.9 44.9 0 21.9-15.7 40.1-36.5 44.1-2.7.5-5.5.8-8.4.8H18.1l58.5 83.5 67.2 96h107.6l-64.5-92.1c-8.2 1.6-16.6 2.4-25.2 2.4-7.7 0-15.2-.7-22.5-1.9 13.8-2.3 26.9-6.7 39-12.9 43.4-22.5 73.1-67.8 73.1-120z" fill="url(#SVGID_7_)"/><linearGradient id="SVGID_8_" gradientUnits="userSpaceOnUse" x1="1.7451" y1="-44.1898" x2="1167.6227" y2="347.3581"><stop offset="0" stop-color="#fe5a1f"/><stop offset="1" stop-color="#fe801f"/></linearGradient><path fill="url(#SVGID_8_)" d="M667.7 0v358.9H775.5v-205l-18.1-25.7z"/><linearGradient id="SVGID_9_" gradientUnits="userSpaceOnUse" x1="21.0843" y1="-101.7744" x2="1186.9619" y2="289.7734"><stop offset="0" stop-color="#fe5a1f"/><stop offset="1" stop-color="#fe801f"/></linearGradient><path fill="url(#SVGID_9_)" d="M963.5 201.9L1042 89.7l1.4-2H935.8l-1.4 2-9.7 13.8-11.9 17.1V0H804.2v358.9H912.8v-75.6l53 75.6h107.6z"/><linearGradient id="SVGID_10_" gradientUnits="userSpaceOnUse" x1="-19.4632" y1="18.9605" x2="1146.4143" y2="410.5083"><stop offset="0" stop-color="#fe5a1f"/><stop offset="1" stop-color="#fe801f"/></linearGradient><path d="M543.7 220.4c-26.2 15.8-56.8 25.2-89.5 25.8l16.3 23.3h-11c-6.7 0-13.2-.8-19.5-2.2-40.2-8.9-70.2-44.7-70.2-87.5 0-2.8.2-5.6.4-8.3.1-1 .2-1.9.4-2.9 0-.1 0-.3.1-.4.2-1.6.4-3.2.7-4.7.2-1.2.5-2.3.7-3.5.3-1.4.7-2.7 1-4 .4-1.3.7-2.7 1.1-4 .2-.7.5-1.4.8-2.1 1.3-3.7 2.8-7.2 4.6-10.7.1-.1.1-.2.1-.3 1-1.9 2-3.7 3.1-5.5.2-.2.3-.5.5-.7 1.1-1.8 2.3-3.6 3.6-5.4 14.7-20.3 37.6-34.3 64-36.8 2.9-.3 5.8-.4 8.7-.4 16 0 30.9 4.2 43.9 11.5 23.3 13.1 40.1 36.3 44.5 63.6.8 4.8 1.3 9.6 1.3 14.6H639c0-3.6-.1-7.2-.3-10.7-.1-1-.2-2.1-.2-3.1-.2-2.6-.4-5.1-.7-7.6v-.4c-.1-1-.2-1.9-.4-2.9-.4-2.8-.8-5.5-1.3-8.2 0-.2-.1-.4-.1-.5-.1-.5-.2-1.1-.3-1.6-.7-3.5-1.5-7-2.4-10.5 0-.1-.1-.2-.1-.3-.9-3.3-1.8-6.5-2.9-9.8l-.3-.9c-.1-.3-.2-.7-.3-1-.9-2.7-1.9-5.4-2.9-8.1 0-.1-.1-.2-.1-.3-.2-.5-.4-1.1-.6-1.6-.3-.7-.6-1.3-.9-2-2.5-6-5.3-11.8-8.4-17.4-2.5-4.6-5.3-9-8.2-13.3l-.6-.9c-.2-.3-.4-.5-.6-.8-2-2.9-4.1-5.8-6.3-8.6-.5-.7-1-1.3-1.5-2-.2-.2-.4-.4-.5-.6-2.7-3.3-5.4-6.5-8.3-9.6l-.1-.1c-.1-.1-.2-.1-.2-.2-2.9-3.1-5.9-6-9-8.8l-.8-.8-.9-.9h-.1c-10.2-9.2-21.5-17.2-33.6-23.9-.6-.3-1.2-.6-1.8-1-3.8-2.1-7.7-4-11.7-5.8h-.1c-2.3-1-4.6-2-6.9-2.9-.3-.1-.7-.3-1-.4-2.1-.8-4.2-1.6-6.4-2.3l-1.8-.6c-1.9-.6-3.9-1.3-5.9-1.8-.8-.2-1.7-.5-2.5-.7-1.8-.5-3.6-1-5.4-1.4-1.1-.3-2.1-.5-3.2-.7-1.7-.4-3.3-.8-5-1.1-1.3-.2-2.5-.5-3.8-.7-1.5-.3-3.1-.5-4.6-.8-1.5-.2-3-.4-4.4-.6-1.4-.2-2.8-.4-4.2-.5-1.8-.2-3.6-.3-5.4-.4-1.1-.1-2.2-.2-3.3-.2-2.9-.1-5.8-.2-8.7-.2h-.2c-4 0-8 .2-11.9.4-.8.1-1.6.1-2.4.2-3.8.3-7.6.7-11.3 1.2h-.1c-3.7.5-7.4 1.2-11 2-1.2.3-2.5.6-3.7.9l-7.2 1.8c-1.3.4-2.6.7-3.9 1.1-2.4.7-4.8 1.5-7.2 2.3l-3.3 1.2c-.5.2-1 .3-1.6.5-2.9 1.1-5.7 2.3-8.5 3.5-.2.1-.3.2-.5.2-2.6 1.2-5.2 2.4-7.8 3.7-.3.1-.6.3-.8.4-2.4 1.2-4.8 2.5-7.2 3.9-.3.2-.7.4-1 .6-2.3 1.3-4.6 2.7-6.8 4.1-.3.2-.7.4-1 .7-2.2 1.4-4.4 2.9-6.5 4.4-.3.2-.7.5-1 .7-2.2 1.6-4.3 3.2-6.4 4.8-.3.2-.6.4-.9.7-2.2 1.7-4.3 3.5-6.4 5.3-.2.2-.4.3-.6.5-2.2 2-4.4 4-6.6 6.1-18.1 17.8-32.4 39.3-41.7 63.4 0 .1-.1.1-.1.2-3 7.7-5.4 15.6-7.3 23.7-.1.6-.3 1.2-.4 1.8-.9 4-1.7 8-2.3 12.1v.3c-.6 3.8-1 7.6-1.3 11.5-.1 1-.2 2-.2 3-.3 4-.5 8-.5 12.1 0 29.9 7.4 58.1 20.3 82.9 1.2 2.3 2.5 4.7 3.8 6.9 5.2 8.9 11 17.3 17.6 25.2 3.4 4 6.9 7.9 10.6 11.6l.3.3c32.5 32.5 77.3 52.6 126.9 52.6 3.4 0 6.8-.1 10.2-.3.7 0 1.4-.1 2-.2 2.8-.2 5.6-.4 8.3-.7.5-.1 1-.1 1.5-.2 3.1-.4 6.2-.8 9.3-1.4h.2c3.4-.6 6.7-1.3 10-2.1 8.1-1.9 16.1-4.4 23.7-7.4l8.6 12.3h107.5l-97.5-138.7z" fill="url(#SVGID_10_)"/></g></g></svg>