<?xml version="1.0" standalone="no"?>
<!DOCTYPE svg PUBLIC "-//W3C//DTD SVG 20010904//EN"
 "http://www.w3.org/TR/2001/REC-SVG-20010904/DTD/svg10.dtd">
<svg version="1.0" xmlns="http://www.w3.org/2000/svg"
 width="1200.000000pt" height="1200.000000pt" viewBox="0 0 1200.000000 1200.000000"
 preserveAspectRatio="xMidYMid meet">
<metadata>
Created by potrace 1.11, written by Peter Selinger 2001-2013
</metadata>
<g transform="translate(0.000000,1200.000000) scale(0.100000,-0.100000)"
fill="#000000" stroke="none">
<path d="M0 6010 l0 -5990 5990 0 5990 0 0 5990 0 5990 -5990 0 -5990 0 0
-5990z m6137 2595 c645 -1111 1604 -2775 1614 -2801 6 -18 5 -22 -7 -17 -16 6
-163 -62 -232 -108 -24 -16 -45 -29 -48 -29 -2 0 -23 -12 -47 -27 -48 -31
-115 -70 -273 -158 -96 -54 -356 -200 -383 -215 -164 -95 -370 -210 -376 -210
-5 0 -22 -11 -40 -24 -17 -13 -47 -31 -66 -40 -19 -8 -61 -32 -94 -51 -33 -20
-73 -43 -90 -51 -16 -8 -37 -19 -45 -24 -27 -18 -194 -112 -215 -121 -11 -5
-47 -25 -80 -44 -33 -19 -85 -49 -115 -65 -54 -30 -82 -46 -185 -105 -27 -15
-70 -39 -95 -53 -25 -13 -60 -33 -78 -44 -33 -20 -57 -33 -215 -117 -45 -24
-89 -49 -97 -56 -8 -7 -35 -22 -60 -34 -25 -12 -70 -36 -101 -54 -221 -126
-282 -160 -329 -184 -19 -10 -37 -20 -40 -23 -5 -5 -30 -20 -97 -56 -24 -13
-62 -34 -86 -47 -23 -14 -75 -43 -116 -66 -41 -23 -79 -45 -85 -50 -6 -5 -45
-27 -86 -49 -96 -50 -168 -91 -200 -111 -14 -10 -44 -25 -67 -36 -24 -10 -43
-22 -43 -26 0 -4 -9 -11 -21 -14 -11 -4 -46 -22 -77 -40 -129 -74 -158 -89
-169 -91 -7 -1 -25 -11 -40 -21 -15 -10 -41 -25 -58 -32 -16 -7 -37 -17 -45
-22 -47 -27 -210 -108 -210 -104 0 2 -26 -9 -57 -24 -32 -15 -74 -34 -93 -41
-19 -7 -46 -21 -60 -31 -14 -9 -41 -20 -60 -24 -19 -4 -54 -18 -78 -32 l-43
-24 27 53 c15 29 130 233 257 453 126 220 271 472 322 560 412 717 2158 3737
2683 4642 56 97 67 110 77 95 6 -9 61 -102 122 -207z m1917 -3318 c138 -237
382 -661 545 -942 162 -280 417 -724 568 -985 l273 -475 -872 -6 c-1182 -8
-5756 -8 -5893 0 -72 4 -103 10 -90 15 34 14 134 66 285 149 310 170 788 431
1080 589 358 194 1859 1009 2470 1341 234 127 637 347 895 488 259 142 475
258 480 258 6 0 122 -194 259 -432z"/>
</g>
</svg>
